<?xml version="1.0" encoding="UTF-8" standalone="no"?>
<!DOCTYPE svg PUBLIC "-//W3C//DTD SVG 1.1//EN" "http://www.w3.org/Graphics/SVG/1.1/DTD/svg11.dtd">
<svg width="100%" height="100%" viewBox="0 0 950 300" version="1.1" xmlns="http://www.w3.org/2000/svg" xmlns:xlink="http://www.w3.org/1999/xlink" xml:space="preserve" xmlns:serif="http://www.serif.com/" style="fill-rule:evenodd;clip-rule:evenodd;stroke-linejoin:round;stroke-miterlimit:2;">
    <g transform="matrix(1,0,0,1,-185.85,-490.357)">
        <g id="Layer1">
            <g>
                <path d="M205.906,615.973C210.77,614.565 217.042,613.253 224.722,612.037C232.402,610.821 240.466,610.213 248.914,610.213C257.49,610.213 264.626,611.333 270.322,613.573C276.018,615.813 280.53,618.981 283.858,623.077C287.186,627.173 289.554,632.037 290.962,637.669C292.37,643.301 293.074,649.573 293.074,656.485L293.074,713.509L264.466,713.509L264.466,659.941C264.466,650.725 263.25,644.197 260.818,640.357C258.386,636.517 253.842,634.597 247.186,634.597C245.138,634.597 242.962,634.693 240.658,634.885C238.354,635.077 236.306,635.301 234.514,635.557L234.514,713.509L205.906,713.509L205.906,615.973Z" style="fill:rgb(106,106,106);fill-rule:nonzero;"/>
                <path d="M413.458,662.821C413.458,670.757 412.306,678.021 410.002,684.613C407.698,691.205 404.37,696.837 400.018,701.509C395.666,706.181 390.45,709.797 384.37,712.357C378.29,714.917 371.474,716.197 363.922,716.197C356.498,716.197 349.746,714.917 343.666,712.357C337.586,709.797 332.37,706.181 328.018,701.509C323.666,696.837 320.274,691.205 317.842,684.613C315.41,678.021 314.194,670.757 314.194,662.821C314.194,654.885 315.442,647.653 317.938,641.125C320.434,634.597 323.89,629.029 328.306,624.421C332.722,619.813 337.97,616.229 344.05,613.669C350.13,611.109 356.754,609.829 363.922,609.829C371.218,609.829 377.906,611.109 383.986,613.669C390.066,616.229 395.282,619.813 399.634,624.421C403.986,629.029 407.378,634.597 409.81,641.125C412.242,647.653 413.458,654.885 413.458,662.821ZM384.274,662.821C384.274,653.989 382.514,647.045 378.994,641.989C375.474,636.933 370.45,634.405 363.922,634.405C357.394,634.405 352.338,636.933 348.754,641.989C345.17,647.045 343.378,653.989 343.378,662.821C343.378,671.653 345.17,678.661 348.754,683.845C352.338,689.029 357.394,691.621 363.922,691.621C370.45,691.621 375.474,689.029 378.994,683.845C382.514,678.661 384.274,671.653 384.274,662.821Z" style="fill:rgb(106,106,106);fill-rule:nonzero;"/>
                <path d="M459.922,662.245C459.922,671.077 461.906,678.181 465.874,683.557C469.842,688.933 475.73,691.621 483.538,691.621C486.098,691.621 488.466,691.525 490.642,691.333C492.818,691.141 494.61,690.917 496.018,690.661L496.018,638.629C494.226,637.477 491.89,636.517 489.01,635.749C486.13,634.981 483.218,634.597 480.274,634.597C466.706,634.597 459.922,643.813 459.922,662.245ZM524.626,710.245C522.066,711.013 519.122,711.749 515.794,712.453C512.466,713.157 508.978,713.765 505.33,714.277C501.682,714.789 497.97,715.205 494.194,715.525C490.418,715.845 486.802,716.005 483.346,716.005C475.026,716.005 467.602,714.789 461.074,712.357C454.546,709.925 449.042,706.437 444.562,701.893C440.082,697.349 436.658,691.845 434.29,685.381C431.922,678.917 430.738,671.653 430.738,663.589C430.738,655.397 431.762,648.005 433.81,641.413C435.858,634.821 438.802,629.221 442.642,624.613C446.482,620.005 451.186,616.485 456.754,614.053C462.322,611.621 468.69,610.405 475.858,610.405C479.826,610.405 483.378,610.789 486.514,611.557C489.65,612.325 492.818,613.413 496.018,614.821L496.018,569.125L524.626,564.517L524.626,710.245Z" style="fill:rgb(106,106,106);fill-rule:nonzero;"/>
                <path d="M546.706,663.781C546.706,654.821 548.082,646.981 550.834,640.261C553.586,633.541 557.202,627.941 561.682,623.461C566.162,618.981 571.314,615.589 577.138,613.285C582.962,610.981 588.946,609.829 595.09,609.829C609.426,609.829 620.754,614.213 629.074,622.981C637.394,631.749 641.554,644.645 641.554,661.669C641.554,663.333 641.49,665.157 641.362,667.141C641.234,669.125 641.106,670.885 640.978,672.421L576.082,672.421C576.722,678.309 579.474,682.981 584.338,686.437C589.202,689.893 595.73,691.621 603.922,691.621C609.17,691.621 614.322,691.141 619.378,690.181C624.434,689.221 628.562,688.037 631.762,686.629L635.602,709.861C634.066,710.629 632.018,711.397 629.458,712.165C626.898,712.933 624.05,713.605 620.914,714.181C617.778,714.757 614.418,715.237 610.834,715.621C607.25,716.005 603.666,716.197 600.082,716.197C590.994,716.197 583.09,714.853 576.37,712.165C569.65,709.477 564.082,705.797 559.666,701.125C555.25,696.453 551.986,690.917 549.874,684.517C547.762,678.117 546.706,671.205 546.706,663.781ZM613.906,652.837C613.778,650.405 613.362,648.037 612.658,645.733C611.954,643.429 610.866,641.381 609.394,639.589C607.922,637.797 606.066,636.325 603.826,635.173C601.586,634.021 598.802,633.445 595.474,633.445C592.274,633.445 589.522,633.989 587.218,635.077C584.914,636.165 582.994,637.605 581.458,639.397C579.922,641.189 578.738,643.269 577.906,645.637C577.074,648.005 576.466,650.405 576.082,652.837L613.906,652.837Z" style="fill:rgb(106,106,106);fill-rule:nonzero;"/>
                <path d="M692.626,692.965C697.874,692.965 701.586,692.453 703.762,691.429C705.938,690.405 707.026,688.421 707.026,685.477C707.026,683.173 705.618,681.157 702.802,679.429C699.986,677.701 695.698,675.749 689.938,673.573C685.458,671.909 681.394,670.181 677.746,668.389C674.098,666.597 670.994,664.453 668.434,661.957C665.874,659.461 663.89,656.485 662.482,653.029C661.074,649.573 660.37,645.413 660.37,640.549C660.37,631.077 663.89,623.589 670.93,618.085C677.97,612.581 687.634,609.829 699.922,609.829C706.066,609.829 711.954,610.373 717.586,611.461C723.218,612.549 727.698,613.733 731.026,615.013L726.034,637.285C722.706,636.133 719.09,635.109 715.186,634.213C711.282,633.317 706.898,632.869 702.034,632.869C693.074,632.869 688.594,635.365 688.594,640.357C688.594,641.509 688.786,642.533 689.17,643.429C689.554,644.325 690.322,645.189 691.474,646.021C692.626,646.853 694.194,647.749 696.178,648.709C698.162,649.669 700.69,650.725 703.762,651.877C710.034,654.181 715.218,656.453 719.314,658.693C723.41,660.933 726.642,663.365 729.01,665.989C731.378,668.613 733.042,671.525 734.002,674.725C734.962,677.925 735.442,681.637 735.442,685.861C735.442,695.845 731.698,703.397 724.21,708.517C716.722,713.637 706.13,716.197 692.434,716.197C683.474,716.197 676.018,715.429 670.066,713.893C664.114,712.357 659.986,711.077 657.682,710.053L662.482,686.821C667.346,688.741 672.338,690.245 677.458,691.333C682.578,692.421 687.634,692.965 692.626,692.965Z" style="fill:rgb(106,106,106);fill-rule:nonzero;"/>
                <path d="M755.794,587.365L784.402,582.757L784.402,612.517L818.77,612.517L818.77,636.325L784.402,636.325L784.402,671.845C784.402,677.861 785.458,682.661 787.57,686.245C789.682,689.829 793.938,691.621 800.338,691.621C803.41,691.621 806.578,691.333 809.842,690.757C813.106,690.181 816.082,689.381 818.77,688.357L822.802,710.629C819.346,712.037 815.506,713.253 811.282,714.277C807.058,715.301 801.874,715.813 795.73,715.813C787.922,715.813 781.458,714.757 776.338,712.645C771.218,710.533 767.122,707.589 764.05,703.813C760.978,700.037 758.834,695.461 757.618,690.085C756.402,684.709 755.794,678.757 755.794,672.229L755.794,587.365Z" style="fill:rgb(106,106,106);fill-rule:nonzero;"/>
                <path d="M876.754,693.541C879.57,693.541 882.258,693.477 884.818,693.349C887.378,693.221 889.426,693.029 890.962,692.773L890.962,671.077C889.81,670.821 888.082,670.565 885.778,670.309C883.474,670.053 881.362,669.925 879.442,669.925C876.754,669.925 874.226,670.085 871.858,670.405C869.49,670.725 867.41,671.333 865.618,672.229C863.826,673.125 862.418,674.341 861.394,675.877C860.37,677.413 859.858,679.333 859.858,681.637C859.858,686.117 861.362,689.221 864.37,690.949C867.378,692.677 871.506,693.541 876.754,693.541ZM874.45,609.829C882.898,609.829 889.938,610.789 895.57,612.709C901.202,614.629 905.714,617.381 909.106,620.965C912.498,624.549 914.898,628.901 916.306,634.021C917.714,639.141 918.418,644.837 918.418,651.109L918.418,710.629C914.322,711.525 908.626,712.581 901.33,713.797C894.034,715.013 885.202,715.621 874.834,715.621C868.306,715.621 862.386,715.045 857.074,713.893C851.762,712.741 847.186,710.853 843.346,708.229C839.506,705.605 836.562,702.181 834.514,697.957C832.466,693.733 831.442,688.549 831.442,682.405C831.442,676.517 832.626,671.525 834.994,667.429C837.362,663.333 840.53,660.069 844.498,657.637C848.466,655.205 853.01,653.445 858.13,652.357C863.25,651.269 868.562,650.725 874.066,650.725C877.778,650.725 881.074,650.885 883.954,651.205C886.834,651.525 889.17,651.941 890.962,652.453L890.962,649.765C890.962,644.901 889.49,640.997 886.546,638.053C883.602,635.109 878.482,633.637 871.186,633.637C866.322,633.637 861.522,633.989 856.786,634.693C852.05,635.397 847.954,636.389 844.498,637.669L840.85,614.629C842.514,614.117 844.594,613.573 847.09,612.997C849.586,612.421 852.306,611.909 855.25,611.461C858.194,611.013 861.298,610.629 864.562,610.309C867.826,609.989 871.122,609.829 874.45,609.829Z" style="fill:rgb(106,106,106);fill-rule:nonzero;"/>
                <path d="M943.378,587.365L971.986,582.757L971.986,612.517L1006.35,612.517L1006.35,636.325L971.986,636.325L971.986,671.845C971.986,677.861 973.042,682.661 975.154,686.245C977.266,689.829 981.522,691.621 987.922,691.621C990.994,691.621 994.162,691.333 997.426,690.757C1000.69,690.181 1003.67,689.381 1006.35,688.357L1010.39,710.629C1006.93,712.037 1003.09,713.253 998.866,714.277C994.642,715.301 989.458,715.813 983.314,715.813C975.506,715.813 969.042,714.757 963.922,712.645C958.802,710.533 954.706,707.589 951.634,703.813C948.562,700.037 946.418,695.461 945.202,690.085C943.986,684.709 943.378,678.757 943.378,672.229L943.378,587.365Z" style="fill:rgb(106,106,106);fill-rule:nonzero;"/>
                <path d="M1020.95,663.781C1020.95,654.821 1022.32,646.981 1025.07,640.261C1027.83,633.541 1031.44,627.941 1035.92,623.461C1040.4,618.981 1045.55,615.589 1051.38,613.285C1057.2,610.981 1063.19,609.829 1069.33,609.829C1083.67,609.829 1094.99,614.213 1103.31,622.981C1111.63,631.749 1115.79,644.645 1115.79,661.669C1115.79,663.333 1115.73,665.157 1115.6,667.141C1115.47,669.125 1115.35,670.885 1115.22,672.421L1050.32,672.421C1050.96,678.309 1053.71,682.981 1058.58,686.437C1063.44,689.893 1069.97,691.621 1078.16,691.621C1083.41,691.621 1088.56,691.141 1093.62,690.181C1098.67,689.221 1102.8,688.037 1106,686.629L1109.84,709.861C1108.31,710.629 1106.26,711.397 1103.7,712.165C1101.14,712.933 1098.29,713.605 1095.15,714.181C1092.02,714.757 1088.66,715.237 1085.07,715.621C1081.49,716.005 1077.91,716.197 1074.32,716.197C1065.23,716.197 1057.33,714.853 1050.61,712.165C1043.89,709.477 1038.32,705.797 1033.91,701.125C1029.49,696.453 1026.23,690.917 1024.11,684.517C1022,678.117 1020.95,671.205 1020.95,663.781ZM1088.15,652.837C1088.02,650.405 1087.6,648.037 1086.9,645.733C1086.19,643.429 1085.11,641.381 1083.63,639.589C1082.16,637.797 1080.31,636.325 1078.07,635.173C1075.83,634.021 1073.04,633.445 1069.71,633.445C1066.51,633.445 1063.76,633.989 1061.46,635.077C1059.15,636.165 1057.23,637.605 1055.7,639.397C1054.16,641.189 1052.98,643.269 1052.15,645.637C1051.31,648.005 1050.71,650.405 1050.32,652.837L1088.15,652.837Z" style="fill:rgb(106,106,106);fill-rule:nonzero;"/>
            </g>
        </g>
    </g>
</svg>
